
<svg version="1.0" xmlns="http://www.w3.org/2000/svg"
 width="26.000000pt" height="26.000000pt" viewBox="0 0 26.000000 26.000000"
 preserveAspectRatio="xMidYMid meet">

<g transform="translate(0.000000,26.000000) scale(0.100000,-0.100000)"
 stroke="none">
<path d="M104 225 c-4 -9 -13 -13 -24 -10 -21 7 -43 -17 -35 -37 4 -9 -1 -18
-9 -21 -21 -8 -21 -46 0 -54 8 -3 13 -12 9 -21 -8 -20 14 -44 35 -37 11 3 20
-1 24 -10 7 -20 45 -20 52 0 4 9 13 13 24 10 21 -7 43 17 35 37 -4 9 1 18 9
21 20 8 21 46 1 53 -9 4 -13 13 -10 24 7 21 -17 43 -37 35 -9 -4 -18 1 -21 9
-8 20 -46 21 -53 1z m51 -95 c0 -18 -6 -26 -23 -28 -13 -2 -25 3 -28 12 -10
26 4 48 28 44 17 -2 23 -10 23 -28z"/>
</g>
</svg>
